PathFileType	3	(X/Y/Z)	D:\VICON_DB\Goncalves\Pilot01\09-03-2026\bw_sq_02.trc
DataRate	CameraRate	NumFrames	NumMarkers	Units	OrigDataRate	OrigDataStartFrame	OrigNumFrames
200.0	200.0	13	34	mm	200.0	503	670	
Frame#	Time	LASI			RASI			LPSI			RPSI			LTHI			LTHAP			LTHAD			LKNE			LKNM			LTIB			LTIAP			LTIAD			LANK			LMED			LHEE			LTOE			LFMH			LSMH			LVMH			RTHI			RTHAP			RTHAD			RKNE			RKNM			RTIB			RTIAP			RTIAD			RANK			RMED			RHEE			RTOE			RFMH			RSMH			RVMH			
		X1	Y1	Z1	X2	Y2	Z2	X3	Y3	Z3	X4	Y4	Z4	X5	Y5	Z5	X6	Y6	Z6	X7	Y7	Z7	X8	Y8	Z8	X9	Y9	Z9	X10	Y10	Z10	X11	Y11	Z11	X12	Y12	Z12	X13	Y13	Z13	X14	Y14	Z14	X15	Y15	Z15	X16	Y16	Z16	X17	Y17	Z17	X18	Y18	Z18	X19	Y19	Z19	X20	Y20	Z20	X21	Y21	Z21	X22	Y22	Z22	X23	Y23	Z23	X24	Y24	Z24	X25	Y25	Z25	X26	Y26	Z26	X27	Y27	Z27	X28	Y28	Z28	X29	Y29	Z29	X30	Y30	Z30	X31	Y31	Z31	X32	Y32	Z32	X33	Y33	Z33	X34	Y34	Z34	
503	2.51	166.18005	869.492	-1085.4512	162.11635	875.30988	-1343.9333				348.37827	945.93713	-1247.8916	149.71977	695.13074	-1036.9899	183.77136	757.76636	-1033.2054	174.18521	628.70337	-1000.6825	170.09834	464.76282	-1011.6512				223.76465	272.57697	-998.18463	146.51712	338.78851	-1045.9686	187.05452	238.77301	-1024.8436	281.76364	69.531281	-1029.9969				324.56659	68.315369	-1082.756	203.24974	71.56163	-1047.5894	149.10635	45.144516	-1074.819				163.62801	24.726673	-994.94739	165.65062	618.6347	-1400.6306	156.65843	745.02075	-1374.2899	122.45348	662.65631	-1353.7041	173.51633	477.4653	-1377.0575				202.78217	280.92892	-1387.8097	151.53896	326.48645	-1337.5389	175.48723	246.85118	-1334.822	291.34113	62.257687	-1353.8488				327.09512	62.912567	-1310.3071	200.43985	67.989159	-1336.4348	151.41231	49.029366	-1311.3696				165.30573	19.23254	-1384.2175
504	2.515	164.58186	871.09821	-1085.2728	160.51619	876.7337	-1343.7648				346.9801	946.96399	-1247.7793	148.77809	695.67944	-1037.1162	182.41887	758.68829	-1033.2021	173.74721	629.29443	-1000.9385	171.09593	465.28104	-1012.236				224.58415	273.00076	-998.52582	147.59921	339.34958	-1046.4335	187.74257	239.26057	-1025.0994	281.8508	69.590385	-1029.9796				324.64868	68.274605	-1082.7589	203.28607	71.582222	-1047.5656	149.12741	45.146275	-1074.8243				163.6077	24.741129	-994.93195	165.49269	619.24091	-1400.4452	155.49789	745.77588	-1374.1279	121.85289	662.9624	-1353.6118	174.77803	478.06747	-1376.8301				203.88687	281.41467	-1387.7162	152.84953	327.12082	-1337.4375	176.37157	247.37877	-1334.7997	291.40274	62.26363	-1353.8582				327.18661	62.87249	-1310.3282	200.4595	67.995148	-1336.452	151.43646	49.017078	-1311.3491				165.313	19.22785	-1384.2123
505	2.52	162.99411	872.6438	-1085.0992	158.93372	878.10211	-1343.6022				345.60275	947.93237	-1247.6635	147.84142	696.19342	-1037.2327	181.07111	759.56744	-1033.1957	173.31656	629.84937	-1001.1924	172.08028	465.77942	-1012.8118				225.39038	273.41293	-998.86194	148.66333	339.89502	-1046.8915	188.42032	239.73579	-1025.3522	281.93738	69.647339	-1029.9603				324.72916	68.233376	-1082.7614	203.32251	71.603584	-1047.5406	149.14825	45.148502	-1074.8291				163.58949	24.753298	-994.91846	165.33688	619.8175	-1400.2517	154.34869	746.49133	-1373.97	121.2603	663.23712	-1353.5118	176.03242	478.65289	-1376.5997				204.98682	281.8902	-1387.618	154.15318	327.74109	-1337.3303	177.25281	247.89722	-1334.7731	291.46533	62.268154	-1353.8661				327.28009	62.831223	-1310.3473	200.47983	68.00045	-1336.4679	151.46114	49.005844	-1311.3291				165.31961	19.224075	-1384.2072
506	2.525	161.41676	874.12817	-1084.9305	157.37029	879.4151	-1343.4467				344.24704	948.84137	-1247.5436	146.90881	696.67145	-1037.338	179.72742	760.40295	-1033.1849	172.89323	630.36682	-1001.4441	173.05035	466.25702	-1013.3788				226.18262	273.8129	-999.19379	149.70869	340.42407	-1047.3438	189.08719	240.19804	-1025.6021	282.02298	69.701904	-1029.9397				324.80804	68.190933	-1082.7638	203.3589	71.625038	-1047.5155	149.16888	45.150879	-1074.8333				163.57356	24.762838	-994.90729	165.18236	620.3653	-1400.0509	153.21133	747.1673	-1373.8159	120.67548	663.48108	-1353.4038	177.27768	479.22162	-1376.3679				206.08168	282.35526	-1387.5172	155.44859	328.34695	-1337.2196	178.13042	248.40613	-1334.7443	291.52933	62.271027	-1353.8732				327.37552	62.788391	-1310.3649	200.50116	68.004875	-1336.4829	151.4865	48.995789	-1311.3102				165.32568	19.220715	-1384.2026
507	2.53	159.84982	875.5506	-1084.7664	155.82698	880.67255	-1343.2985				342.91296	949.69104	-1247.4187	145.97966	697.11243	-1037.4318	178.38745	761.19458	-1033.1688	172.47717	630.84595	-1001.6937	174.00539	466.71304	-1013.9376				226.96049	274.19995	-999.52191	150.73483	340.93588	-1047.7908	189.74284	240.6467	-1025.8503	282.10721	69.753761	-1029.9181				324.88544	68.14637	-1082.7662	203.39496	71.645874	-1047.4915	149.18922	45.153103	-1074.8372				163.56001	24.769672	-994.89844	165.02859	620.88519	-1399.8429	152.0864	747.80365	-1373.665	120.09802	663.69495	-1353.2883	178.51204	479.77365	-1376.1364				207.17087	282.80978	-1387.415	156.73438	328.93811	-1337.1067	179.00356	248.90498	-1334.7147	291.59497	62.272163	-1353.8793				327.47281	62.743664	-1310.3805	200.52388	68.008217	-1336.4974	151.51265	48.986992	-1311.2927				165.3315	19.21723	-1384.199
508	2.535	158.29327	876.91113	-1084.6064	154.30479	881.87488	-1343.1583				341.60001	950.48169	-1247.2883	145.05348	697.51593	-1037.5129	177.05092	761.94214	-1033.146	172.06801	631.2865	-1001.9415	174.94478	467.14685	-1014.4886				227.72391	274.57364	-999.84698	151.74161	341.42984	-1048.2333	190.38724	241.08122	-1026.0968	282.18973	69.802567	-1029.8956				324.96146	68.09877	-1082.769	203.4306	71.665382	-1047.4692	149.20929	45.154919	-1074.8412				163.54877	24.773954	-994.89191	164.87538	621.37781	-1399.6288	150.97437	748.4007	-1373.5173	119.5274	663.87958	-1353.1664	179.73354	480.30899	-1375.9055				208.25354	283.25375	-1387.3127	158.00882	329.51419	-1336.9935	179.87109	249.39346	-1334.6859	291.66248	62.271637	-1353.8848				327.57162	62.696838	-1310.3944	200.54843	68.010254	-1336.5116	151.53964	48.979443	-1311.2773				165.33734	19.213106	-1384.1965
509	2.54	156.74728	878.20984	-1084.4497	152.80446	883.02234	-1343.0266				340.30746	951.21393	-1247.1522	144.13002	697.88123	-1037.5815	175.71773	762.64575	-1033.1156	171.66536	631.68842	-1002.1873	175.86807	467.55807	-1015.0328				228.47304	274.9335	-1000.1699	152.72902	341.90518	-1048.6718	191.02043	241.50111	-1026.3425	282.27054	69.847946	-1029.8729				325.03625	68.047264	-1082.7723	203.46576	71.682953	-1047.4503	149.22917	45.15612	-1074.8453				163.53969	24.776012	-994.88751	164.72264	621.84363	-1399.4089	149.8757	748.95874	-1373.3723	118.96302	664.03571	-1353.0392	180.94026	480.82748	-1375.6765				209.32849	283.68698	-1387.2114	159.26981	330.07495	-1336.8815	180.73177	249.87108	-1334.6588	291.7319	62.269615	-1353.8899				327.67169	62.647812	-1310.4064	200.57518	68.010803	-1336.5259	151.56738	48.973095	-1311.2648				165.34352	19.20789	-1384.1951
510	2.545	155.21201	879.44702	-1084.2955	151.32663	884.11554	-1342.903				339.03531	951.88824	-1247.0096	143.20923	698.20831	-1037.6379	174.38794	763.30585	-1033.0762	171.2686	632.05225	-1002.4314	176.7749	467.94662	-1015.5707				229.20818	275.27921	-1000.491	153.69713	342.36151	-1049.1062	191.64258	241.90599	-1026.5873	282.34958	69.88958	-1029.8496				325.11002	67.99115	-1082.7764	203.50043	71.698128	-1047.4351	149.24889	45.156578	-1074.85				163.53259	24.776297	-994.88519	164.57043	622.28308	-1399.1838	148.79082	749.47852	-1373.2295	118.40426	664.164	-1352.9084	182.13019	481.32889	-1375.4495				210.3941	284.10931	-1387.1115	160.51511	330.62003	-1336.7711	181.58388	250.33739	-1334.6338	291.80328	62.266411	-1353.8944				327.77258	62.596657	-1310.4163	200.60461	68.009666	-1336.54	151.59575	48.967876	-1311.2549				165.35034	19.201273	-1384.1947
511	2.55	153.68779	880.6236	-1084.1431	149.87183	885.15479	-1342.7866				337.78357	952.50519	-1246.8597	142.2912	698.49768	-1037.6824	173.06171	763.92316	-1033.0269	170.87704	632.37866	-1002.6738	177.66483	468.31247	-1016.1034				229.92976	275.61057	-1000.8112	154.64597	342.79858	-1049.5376	192.25391	242.29562	-1026.8315	282.42694	69.927307	-1029.8263				325.18298	67.929962	-1082.7814	203.53479	71.710632	-1047.4244	149.26851	45.156216	-1074.8555				163.52728	24.775307	-994.88464	164.41908	622.69647	-1398.9543	147.72009	749.96051	-1373.0895	117.85046	664.26538	-1352.7764	183.30119	481.81287	-1375.2246				211.44844	284.52057	-1387.0122	161.74222	331.14893	-1336.6628	182.4257	250.79196	-1334.6108	291.87646	62.262413	-1353.8977				327.87375	62.54361	-1310.4232	200.63722	68.006775	-1336.5535	151.62448	48.963696	-1311.2478				165.35794	19.193203	-1384.1957
512	2.555	152.17511	881.74036	-1083.9915	148.44054	886.14069	-1342.6771				336.55252	953.06525	-1246.7021	141.37605	698.74969	-1037.7157	171.73923	764.49884	-1032.9666	170.48991	632.66882	-1002.9144	178.53723	468.65604	-1016.631				230.63812	275.92767	-1001.1309	155.5755	343.21655	-1049.9657	192.85445	242.66994	-1027.0756	282.50241	69.961311	-1029.8027				325.25525	67.86348	-1082.787	203.56909	71.720284	-1047.4192	149.28807	45.15498	-1074.8622				163.52359	24.773537	-994.88599	164.26889	623.08386	-1398.7207	146.66382	750.40558	-1372.9518	117.3007	664.34058	-1352.6451	184.4511	482.27905	-1375.0018				212.48915	284.92044	-1386.9141	162.94867	331.66107	-1336.5563	183.25525	251.23424	-1334.589	291.95139	62.258133	-1353.8995				327.97449	62.489025	-1310.4274	200.67329	68.002144	-1336.5658	151.65326	48.960434	-1311.244				165.36642	19.183828	-1384.1979
513	2.56	150.67455	882.79852	-1083.84	147.03313	887.07391	-1342.5729				335.34201	953.56989	-1246.5366	140.46393	698.96564	-1037.738	170.42073	765.03387	-1032.8954	170.10635	632.92407	-1003.1536	179.39137	468.97794	-1017.154				231.33345	276.23071	-1001.4501	156.48567	343.61557	-1050.3914	193.44429	243.02901	-1027.3195	282.57574	69.992188	-1029.7787				325.32693	67.791832	-1082.7941	203.60356	71.727028	-1047.42	149.30763	45.152874	-1074.8706				163.52138	24.771492	-994.88904	164.12021	623.44531	-1398.4833	145.62231	750.81439	-1372.8169	116.75394	664.39026	-1352.5176	185.57753	482.72705	-1374.7804				213.5135	285.30875	-1386.8154	164.13171	332.15598	-1336.4506	184.07045	251.66359	-1334.5675	292.02771	62.254154	-1353.899				328.07422	62.433426	-1310.4275	200.71291	67.99588	-1336.5768	151.68181	48.957985	-1311.2428				165.37578	19.173447	-1384.2012
514	2.565	149.18669	883.79962	-1083.6882	145.64984	887.95544	-1342.4731				334.15131	954.02106	-1246.3629	139.55501	699.14661	-1037.7509	169.10655	765.52979	-1032.8132	169.72536	633.14618	-1003.3912	180.22626	469.27902	-1017.6723				232.01572	276.52017	-1001.7689	157.37628	343.99603	-1050.8143	194.02327	243.37314	-1027.5634	282.64664	70.020828	-1029.7545				325.39816	67.715416	-1082.8025	203.63837	71.730865	-1047.4271	149.32718	45.149914	-1074.8807				163.52051	24.769682	-994.8938	163.9733	623.78076	-1398.2421	144.59589	751.18756	-1372.6857	116.20896	664.41547	-1352.3964	186.67805	483.15631	-1374.5599				214.51859	285.68524	-1386.7157	165.28856	332.63303	-1336.3447	184.86922	252.07945	-1334.5449	292.10519	62.251095	-1353.8953				328.17206	62.377411	-1310.4233	200.75577	67.988205	-1336.5861	151.70988	48.956253	-1311.2441				165.386	19.162457	-1384.2056
515	2.57	147.71213	884.74506	-1083.5358	144.29082	888.78607	-1342.3768				332.97906	954.42151	-1246.1823	138.64932	699.29449	-1037.7545	167.79704	765.98816	-1032.7207	169.34589	633.33667	-1003.6279	181.0407	469.56036	-1018.1857				232.68468	276.79648	-1002.0873	158.24696	344.35849	-1051.2346	194.591	243.70265	-1027.807	282.71475	70.048187	-1029.7305				325.46887	67.634941	-1082.8129	203.67361	71.73188	-1047.441	149.34659	45.146175	-1074.8928				163.52083	24.768606	-994.90002	163.82828	624.08997	-1397.9976	143.58488	751.52582	-1372.5579	115.66457	664.41711	-1352.2842	187.75012	483.56638	-1374.3395				215.50137	286.04968	-1386.6135	166.41618	333.09183	-1336.2368	185.64944	252.48122	-1334.5192	292.18344	62.249588	-1353.8879				328.26724	62.321644	-1310.4141	200.80156	67.979393	-1336.5931	151.73717	48.955162	-1311.2472				165.39702	19.151289	-1384.2109
